<?xml version="1.0" encoding="UTF-8"?>
<svg id="Layer_1" data-name="Layer 1" xmlns="http://www.w3.org/2000/svg" viewBox="0 0 40.09 40.09">
  <defs>
    <style>
      .cls-1 {
        fill: #fff;
      }
    </style>
  </defs>
  <circle class="cls-1" cx="19.72" cy="20.58" r="15"/>
  <path d="M20.04,1.58C9.85,1.58,1.58,9.85,1.58,20.04s8.27,18.47,18.47,18.47,18.47-8.27,18.47-18.47S30.24,1.58,20.04,1.58Zm-2.78,27.23c0,.61-.21,.86-.85,.86h-4.3c-.61,0-.86-.21-.86-.85V11.28c0-.61,.21-.86,.86-.86h4.3c.61,0,.86,.21,.86,.85V28.8Zm11.86,.86h-5.06c-.85,0-1.12-.35-1.41-.71l-2.93-3.79c-.3-.41-.47-.96-.47-1.47h0v-1.91c0-.65,.25-.85,.86-.85h1.38c1.94,0,2.53,.83,3.81,2.37l4.31,5.18c.63,.75,.32,1.18-.49,1.18Zm.49-18.06l-4.31,5.18c-1.28,1.54-1.87,2.37-3.81,2.37h-1.38c-.61,0-.86-.21-.86-.85v-1.91s0,0,0,0c0-.51,.18-1.06,.47-1.47l2.93-3.79c.29-.36,.56-.71,1.41-.71h5.06c.81,0,1.12,.43,.49,1.18Z"/>
</svg>