<svg xmlns="http://www.w3.org/2000/svg" xmlns:xlink="http://www.w3.org/1999/xlink" id="Layer_1" x="0px" y="0px" viewBox="0 0 100 100" style="enable-background:new 0 0 100 100;" xml:space="preserve"><path d="M29.2,82.7c0,2.3-0.8,3.3-3.2,3.3H9.6c-2.3,0-3.3-0.8-3.3-3.2V16c0-2.3,0.8-3.3,3.3-3.3H26c2.3,0,3.3,0.8,3.3,3.3L29.2,82.7 L29.2,82.7z"></path><path d="M74.3,85.9H55.1c-3.2,0-4.3-1.3-5.4-2.7L38.5,68.8c-1.1-1.6-1.8-3.7-1.8-5.6h0V56c0-2.5,0.9-3.2,3.3-3.2h5.3 c7.4,0,9.6,3.1,14.5,9l16.4,19.7C78.6,84.3,77.4,85.9,74.3,85.9L74.3,85.9z"></path><path d="M76.2,17.2L59.8,37c-4.9,5.9-7.1,9-14.5,9H40c-2.3,0-3.3-0.8-3.3-3.2v-7.3l0,0c0-1.9,0.7-4,1.8-5.6l11.1-14.4 c1.1-1.4,2.1-2.7,5.4-2.7h19.2C77.4,12.8,78.6,14.4,76.2,17.2z"></path><g>	<path d="M89,80.3c0.4-0.3,0.6-0.8,0.6-1.3s-0.2-1.1-0.6-1.4C88.6,77.2,88,77,87.3,77h-2.9v5.9h1.3v-2.1h1.2l1.2,2.1h1.5l-1.3-2.2  C88.5,80.6,88.8,80.5,89,80.3L89,80.3z M85.7,78.2h1.5c0.3,0,0.5,0.1,0.7,0.2c0.2,0.1,0.2,0.3,0.2,0.6c0,0.3-0.1,0.4-0.2,0.6  c-0.2,0.1-0.4,0.2-0.7,0.2h-1.5L85.7,78.2L85.7,78.2z"></path>	<path d="M92.3,76.9c-0.5-0.9-1.3-1.6-2.2-2.1s-2-0.8-3.2-0.8s-2.3,0.2-3.2,0.8S82,76,81.5,76.9s-0.8,2-0.8,3.1  c0,1.2,0.3,2.3,0.8,3.2c0.5,0.9,1.3,1.6,2.2,2.2s2,0.8,3.2,0.8s2.2-0.2,3.2-0.8c0.9-0.5,1.7-1.2,2.2-2.2s0.8-2,0.8-3.2  C93.1,78.8,92.8,77.8,92.3,76.9z M90.2,83.6c-0.9,0.9-2,1.3-3.3,1.3c-0.9,0-1.7-0.2-2.4-0.6s-1.3-0.9-1.7-1.7  c-0.4-0.7-0.6-1.6-0.6-2.6c0-1.5,0.4-2.7,1.3-3.5c0.9-0.8,2-1.3,3.3-1.3c0.9,0,1.6,0.2,2.3,0.6s1.2,0.9,1.7,1.7s0.6,1.6,0.6,2.6  C91.5,81.6,91.1,82.7,90.2,83.6L90.2,83.6z"></path></g></svg>