<svg xmlns="http://www.w3.org/2000/svg" xmlns:xlink="http://www.w3.org/1999/xlink" id="Layer_1" x="0px" y="0px" viewBox="0 0 187 41" style="enable-background:new 0 0 187 41;" xml:space="preserve"><g>	<polygon points="33.7,3.8 24.8,3.8 13.7,17.3 10.4,17.3 10.4,3.8 2.8,3.8 2.8,37.8 10.4,37.8 10.3,24 14,24 24.8,37.8 33.7,37.8   20,20.2  "></polygon>	<path d="M40.3,2.2c-1.3,0-2.3,0.3-3,1c-0.7,0.6-1,1.5-1,2.7c0,1.2,0.3,2.2,1,2.9c0.7,0.7,1.7,1,3,1s2.4-0.3,3.1-1  c0.7-0.7,1-1.6,1-2.9c0-1.1-0.3-2-1-2.7C42.7,2.5,41.7,2.2,40.3,2.2z"></path>	<path d="M36.9,13.1v24.7h7.4V13.2c0,0,0,0,0,0s0,0,0,0L36.9,13.1L36.9,13.1z"></path>	<path d="M78.7,12.7c-1.9,0-3.6,0.5-5,1.5c-1.1,0.7-1.9,1.7-2.6,2.8c-0.6-1.2-1.3-2.1-2.2-2.9c-1.3-0.9-2.9-1.4-5-1.4  c-1.8,0-3.3,0.4-4.6,1.3c-0.9,0.6-1.7,1.4-2.3,2.3l-0.7-3.2H50v24.7h7.3l0.1-13.5c0-1.9,0.3-3.3,1-4.1s1.6-1.3,2.8-1.3  c0.8,0,1.5,0.2,2.1,0.5c0.5,0.4,0.9,0.9,1.2,1.8s0.4,1.9,0.5,3.2l-0.1,13.5h7.4l-0.1-13.5c0-1.9,0.3-3.3,1-4.2  c0.7-0.9,1.6-1.3,2.9-1.3c0.8,0,1.5,0.2,2.1,0.5c0.6,0.4,1,0.9,1.3,1.8s0.4,1.9,0.4,3.2L80,37.8h7.3V23.7c0-3.6-0.7-6.4-2.1-8.2  S81.6,12.7,78.7,12.7L78.7,12.7z"></path>	<path d="M108.2,26.5c0,2-0.3,3.4-1.1,4.2c-0.8,0.8-1.8,1.2-3.2,1.2c-0.9,0-1.6-0.1-2.3-0.5c-0.6-0.3-1.1-0.9-1.5-1.7  c-0.3-0.8-0.5-1.9-0.5-3.2V13.1h-7.3v13.4c0,2.6,0.4,4.8,1.3,6.5c0.9,1.7,2.1,3,3.8,3.9c1.7,0.9,3.8,1.3,6.4,1.3  c3.8,0,6.7-1,8.6-2.9s2.9-4.9,2.9-8.7l0.1-13.4h-7.4C108.1,13.1,108.2,26.5,108.2,26.5z"></path>	<path d="M130.7,14c-1.1,0.8-2,1.9-2.6,3.4l-0.9-4.3H121v24.7h7.3v-10c0-2.1,0.2-3.6,0.5-4.6c0.3-1,0.9-1.6,1.8-2s2.2-0.6,4-0.6h1.8  v-7.7h-1.3C133.3,12.9,131.8,13.3,130.7,14L130.7,14z"></path>	<path d="M157.8,13.1l-0.7,3.7c-0.7-1.1-1.6-2-2.6-2.7c-1.5-1-3.3-1.5-5.3-1.5c-2.3,0-4.3,0.5-5.9,1.6s-2.9,2.5-3.7,4.5  c-0.8,1.9-1.3,4.1-1.3,6.7s0.4,4.8,1.3,6.7s2.1,3.5,3.7,4.5s3.6,1.6,5.9,1.6c1.9,0,3.6-0.4,5.1-1.2c1.2-0.7,2.2-1.7,3-2.9l0.8,3.7  h6.2V13.1H157.8L157.8,13.1z M155.4,30.4c-1,1.2-2.4,1.8-4.1,1.8c-1.1,0-2.1-0.3-3-0.8c-0.9-0.5-1.5-1.3-1.9-2.3s-0.6-2.2-0.6-3.7  c0-2.1,0.5-3.7,1.4-4.8s2.3-1.7,4.1-1.7s3.2,0.6,4.2,1.7c1,1.1,1.4,2.8,1.4,4.9C156.8,27.6,156.3,29.3,155.4,30.4L155.4,30.4z"></path></g><path d="M169.9,32.5c0-4.3,2.8-6.4,6.4-6.4s6.4,2.1,6.4,6.4s-2.8,6.3-6.4,6.3S169.9,36.7,169.9,32.5z M176.2,37.2 c2.6,0,4.7-1.4,4.7-4.7s-2.1-4.8-4.7-4.8s-4.7,1.4-4.7,4.8S173.6,37.2,176.2,37.2z M173.7,29.3c0.7-0.1,2.1-0.1,2.3-0.1 c2,0,2.9,0.7,2.9,2c0,0.9-0.4,1.5-1.4,1.8l1.5,2.4h-1.7l-1.2-2.2c-0.4,0-0.7,0-1-0.1v2.3h-1.5L173.7,29.3L173.7,29.3z M176.1,32.1 c0.9,0,1.4-0.2,1.4-0.9s-0.6-0.9-1.4-0.9c-0.2,0-0.6,0-0.9,0.1v1.6C175.5,32.1,175.7,32.1,176.1,32.1z"></path></svg>